<svg version="1.2" xmlns="http://www.w3.org/2000/svg" viewBox="0 0 1657 736" width="1657" height="736">
	<style>
		.s0 { fill: #fff } 
		.s1 { opacity: .01;fill: #fcfcfb } 
		.s2 { opacity: .01;fill: #2e2e2e } 
		.s3 { opacity: .91;fill: #fff } 
		.s4 { opacity: .01;fill: #b2b3af } 
		.s5 { opacity: .92;fill: #fff } 
		.s6 { opacity: .13;fill: #fcfcfb } 
		.s7 { opacity: .82;fill: #2e2e2e } 
		.s8 { opacity: .03;fill: #fcfcfb } 
		.s9 { opacity: .89;fill: #fff } 
		.s10 { opacity: .08;fill: #fcfcfb } 
		.s11 { opacity: .14;fill: #fcfcfb } 
		.s12 { opacity: .82;fill: #fff } 
		.s13 { opacity: .07;fill: #fcfcfb } 
		.s14 { opacity: .02;fill: #fcfcfb } 
	</style>
	<path class="s0" d="m284.48 25.98c-36.22 19.83-67.4 41.78-63.93 87.18 0.71 9.32 4.89 32.39 11.58 38.31q1.44 0.36 2.88 0.72c5.26-5.31 28.53-31.31 31.64-34.92 86.24-100.01 231.84-152.41 355.38-89.61 41.25 20.97 71.05 55.09 85.13 100.4-12.96-8.8-27.11-17.76-41.22-24.42-49.7-23.46-110.53-19.53-159.05 4.9-34.18 17.22-68.5 49.68-84.48 84.55 20.22-6.45 41.89-10.95 61.98-17.29 2.63-23.42 17.01-41.54 37.26-52.88 31.73-17.78 72.12-18.07 106.56-9.14 11.96 3.11 45.69 15.51 40.73 32.09-6.14 7.35-72.68 30.17-86.61 36.3-2.02 9.33-4.09 21.02-5.14 30.36 7.26 7.8 22.37 21 30.71 28.75 25.21-14.16 53.8-32.02 79.78-43.72 5.19-1.91 15.42-6.85 17.04 2.4 0.91 5.23-1.46 17.21-2.83 22.59-12.23 57.35-54.08 105.2-115.39 104.47-41.8-0.5-71.53 21.06-102.49 47.46 12.28 25.17 21.11 77.41 21.54 105.83-13.78 20.1-35 39.17-53.24 55.33-45.46 40.08-94.14 76.36-145.54 108.48-14.91 9.21-33.02 18.62-48.4 27.34-10.19 5.77-32.71 19.19-42.88 22.71l4.45-8.91c6.77-11.37 17.8-34 21.63-46.18-8.68 10.66-21.07 29.77-28.41 41.66l-3.74 4.65c-8.03 10.14-16.21 15.53-24.81 24.34-6.94 7.11-15.73 18.55-22.14 26.47-31.36-26.78-36.25-38.72-41.09-78.26-13.57 8.26-19.58 10.59-35.02 13.9 7.5-17.76 37.84-61.27 31.17-83.28-1.69-5.56-22.85-18.84-27.29-24.94-3.73-5.12-8.06-12.77-11.45-18.51-28.04-21.73-24.09-64.18-14.69-94.4 2.15-6.92 11.27-22.2 15.65-30.54 7.92-14.81 15.01-30.05 21.24-45.65-14.79-15.44-17.95-26-24.71-45.59-54.44-20.34-70.15-78.42-76.47-130.44 23.54 4.54 46.1 12.22 69.58 16.96 6.79 1.37 13.59 2.93 20.37 4.37-12.94-45.72-15.7-93.89 4.87-138.02 24.24-52 71.54-80.29 128.81-75.18 24.02 2.14 39.61 8.91 61.04 19.36zm-41.3 144.57c-31.84 11.48-53.94 18.01-73.95 47.32-1.83 0.84-3.48 2.01-5.19 3.1l-1.37-0.48-0.66-9.06 0.35-2.67-1.11-0.81c-5.77 3.07-13.65 13.13-18.01 18.31l9.54-30.39c-24.72 19.21-39.09 47.7-53.56 74.74-3.34 6.22-12.9 18.85-13.55 24.91-1.35 12.73 26.4 32.14 35.14 37.79-0.89-7.32-2.03-15.18-2.3-22.51 4 10.46 9.77 27.13 15.57 36.16-13.18 24.22-26.35 48.65-38.71 73.3-5 9.96-16.83 27.98-20.27 37.26 24.35 54.71 62.02-4 85.37-0.74 8.6 15.81-62.43 40.48-44.05 65.71 18.78 25.78 76.17-10.81 96.89-21.22 15.88-7.97 17.77-26.47 21.17-42.15 7.12 16.89 8.34 27.25 12.05 44.91 10.1-24.73 9.36-33.91 5.8-60.66 23.45 33.31 20.18 56.25 21.65 93.14 28.17-26.52 35.93-50.15 30.52-87.75 7.4 7.92 11.6 13.25 17.71 22.26 3.54-9.9 7.97-21.46 5.5-31.73-0.41-1.72-0.31-3.01-0.19-4.76 10.46-2.53 16.33 16.85 18.14 24.16 15.2-22.76 18.66-46.81 13.39-73.49q-1.03-5.17-2.2-10.32c7.98 8.11 15.47 15.41 21.16 25.33 0.79-25.71-1.22-39.41-13.64-62.27-0.2-3.06-0.54-4.23 0.7-7.07l1.66-0.51c3.92 1.74 4.82 2.13 9.07 2.36l1.25 0.34c4.52-4.07-12.73-35.97-9.37-45.68 4.26-12.25 85.61-61.64 101.19-70.85-7.33 16.73-16.6 34.01-25.54 50-4.7 7.28-11.39 18.25-16.73 24.7-4.78 5.66-8.26 9.97-12.53 15.99 8.07-3.46 12.77-7.1 18.73-13.4 5.1-5.55 8.29-9.39 12.84-15.39 17.49-24.65 31.37-58.65 41.6-87.03-29.68 7.02-58.9 15.9-87.47 26.58-14.88 5.65-39.93 17.97-54.18 21.29l-0.97-0.41c-6.82-2.78-10.6-3.84-17.77-5.43 8.5-3.23 20.89-5.36 30.63-8.54-28.26-18.12-46.43-16.7-78.89-14.51 27.66-8.4 50.06-6.81 79.03-6.99-17.72-20.5-60.77-41.58-87.91-33.05l-0.17 1.04 4.47 3.02c-1.38 3.32-9.07 5.1-12.74 6.33-17.91 6-29.59 15.4-43.1 28.17 7.03-16.04 14.27-24.75 25.01-38.35zm-81.67 517.14c1.97 7.04 3.49 11.77 6.09 18.59 1.6-6.43 3-12.24 5.11-18.54 17.82-37.03 44.34-66.06 47.8-107.64 0.84-10.07 3.41-21.94 5.84-31.85-9.14 5.84-15.66 8.83-25.59 12.99-1.3 12.04-3.26 22.06-5.56 33.95-4.38-16.05-2.3-26.36-10.88-42.96 7.87-4.36 42-27.42 36.14-37.6-6.98 0.19-34.62 14.24-43.49 17.72-33.26 13.08-49 17.54-83.88 16.83 12.02 10.75 31.37 21.81 37.85 36.22 8.48 18.88-12.03 47.58-19.19 65.89l-0.41 1.08c19.24-12.96 33.94-22.74 43.67-44.25 1.69-3.75 5.84-13.85 7.31-16.61l0.89 0.4c4.19 12.57-6.39 51-6.36 65.89 0.02 13 0.89 17.16 4.66 29.89zm211.32-155.65c2.1-19.01 2.24-22.3 0.24-41.53-5.87 13.42-29.66 79.43-39.08 86.04l-1.15-1.33c0.07-12.31-0.49-21.35-1.82-33.43-4.17 5.78-5.82 8.93-9.13 15.2-7.34 16.56-23.85 45.04-33.47 61.1-4.38 5.42-10.53 16.16-14.52 22.41q10.69-6.13 21.2-12.58c80.14-55.36 138.03-111.2 148.19-213.27 7.24 12.23 13.37 35.1 17.08 49.2 12.47-50.96-10.74-98.1-50.14-130.15 2.64 14.6 5.58 29.39 7.11 44.13 6.2 55.27-9.81 110.74-44.51 154.21zm-58.08-428.81l-2.5-0.11c-1.92 4.14 0.5 5.64-0.15 6.24-2.78 2.57-10.75 8.7-13.08 11.29-6.68 7.4-11.6 16.34-18.26 23.83l-0.28 2.48c3.31 2.72 17.99 2.64 22.56 2.18 19.61 2.94 29.6 7.5 45.71 18.36 5.86-6.22 20.24-26.97 28.92-24.54 1.3 2.02 1.25 1.9 3.19 3.34 1.24-2.67 0.3-5.04-0.11-8.55 2.28-2.95 2.49-2.86 3.23-6.66 1.96-7.21 22.5-23.29 29-28.7-9.81-23.82-36.7-33.14-60.7-31.73-13.91 9.03-25.35 21.52-37.53 32.57zm107.99 3.61c4.94-17.49 11.81-19.49 27.57-29.19-2-7.39-3.27-11.57-7.81-18.02 0.29-2.57 0.1-2.77 1.37-4.97 2.01 1.01 2.7 1.32 4.81 1.92l1.7 0.47q5.41 9.23 10.43 18.66c13.11-7.16 32.84-15.03 47.74-16.57 10.86 0.87 3.15-2.32 7.8-5.76l4.04 1.85c1.44 0.86 20.78-3.32 24.57-4.01 6.98 0.03 21.66 2.57 26.34 1.27 2.84-2.89 2.61-3.11 3.58-6.92 0.83 1.77 1.46 4.41 3.64 4.46 22.16 0.44 38.34 5.82 59.14 13.39-19.53-22.85-43.62-27.38-69.32-39.35l-0.62-1.07c-5.24-0.72-10.93-2.77-16.4-3.64-13.96-2.22-32.55-4.7-46.58-3.51-3.15 0.39-7.57 0.19-10.85 0.17l-2.3-0.14c-2.61 3.38-0.99 2.34-4.89 3.45-9.97-4.61-42.64 6.66-53.71 10.7q-1.49 0.54-2.96 1.13c-4.92 0.04-7.25 1.02-11.18 4.02-3.64 2.78-5.49 0.36-8.82 2.29-19.32 9.27-32.81 15.47-50.8 27.4 30.85 2.31 51.82 11.24 63.51 41.97zm33.92 225.01c2.2 4.68 3.31 7.32 6.28 11.62 4.85-3.23 51.99-41.77 52.78-43.4-0.72-3.02 0.03-1.74-2.57-3.82l-1.56-0.27c-12.27 6.37-43.45 27.47-54.93 35.87zm-243.55-307.92c-25.78 0.17-47.03 4.78-67.01 21.98 4.14-0.02 8.98-0.6 12.28 1.42-1.99 2.73-2.88 2.4-6.51 4.01-13.09 4.3-22.76 12.22-31.55 22.67 7.79-1.56 23.95-5.61 30.43-1.59-6.06 8.2-32.53-3.9-41.1 37.51 8.37-4.73 29.04-13.99 37.24-5.79-3.77 4.2-39.79 0.11-37.05 39.71 0.24 3.36 0.07 4.98 2.23 7.61 2.37-0.73 6.38-3.88 8.38-5.62 10.2-8.89 18.61-9.93 31.82-11.19-4.6-28.75-2.5-46.34 10.61-72.51 15.38-23.55 23.87-29.51 50.23-38.21zm-94.81 319.32c-4.36-1.06-9.36-2.15-13.62-3.37-3.86-6.84-9.86-20.68-15.86-24.44 0.79 10.26 6.69 42.01 19.19 43.4 3.21-1.64 1.91-0.5 3.88-3.73 2.02-3.73 4.57-8.12 6.41-11.86zm-57.54-32.16c-7.23-15.01-30.6-61.9-29.87-76.84l1.05-0.87c1.89 0.56 3.37 0.95 5.19 1.67q25.24 10.99 50.37 22.24c4.89-9 9.2-15.81 14.99-24.18-25-4.79-39.85-4.97-65.82-12.92-8.4-2.75-16.05-5.32-24.68-7.41 4.57 29.56 23.11 80.85 48.77 98.31zm90.1 400.61l1.76 1.21 0.53-0.74c-8.99-19.3-12.9-30.81-12.1-52.71 0.17-4.83 2.28-11.59-0.4-13.96-13.56 23.72-2.76 45.31 10.21 66.2zm-47.65-175.91c-0.29-16.8-0.25-25.5-13.58-38.51-4.2-4.1-14.32-11-19.74-12.8-0.6 25.74 1.7 51.18 33.32 51.31zm44.81-396.82c-21.06 5.13-39.08 24.37-30.46 45.72 1.05 2.61 0.93 3.17 3.39 4.45l2.59-1.32c13.93-11.15 18.1-13.79 35.36-18.73-1.27-7.27-3.54-23.09-6.73-28.87-2.28-1.36-1.4-1.07-4.15-1.25z"/>
	<path class="s1" d="m218.17 208.9c13.51-12.77 25.19-22.17 43.1-28.17 3.67-1.23 11.36-3.01 12.74-6.33l-4.47-3.02 0.17-1.04c27.14-8.53 70.19 12.54 87.91 33.05-28.97 0.18-51.37-1.41-79.03 6.99 32.46-2.19 50.63-3.61 78.89 14.51-9.73 3.18-22.13 5.31-30.63 8.54 7.17 1.59 10.95 2.65 17.77 5.43l0.97 0.41c14.25-3.32 39.3-15.64 54.18-21.29 28.57-10.68 57.79-19.56 87.47-26.59-10.23 28.39-24.1 62.39-41.6 87.04l-2.31-11.91c8.94-15.98 18.21-33.26 25.54-49.99-15.58 9.21-96.93 58.6-101.19 70.85-3.36 9.71 13.89 41.61 9.37 45.68l-1.25-0.34c-6.88-5.95-21.69-15.89-29.54-21.45 5.85 9.57 12.04 17.54 18.11 26.67 12.42 22.86 14.43 36.56 13.64 62.27-5.69-9.92-13.18-17.22-21.16-25.33q1.17 5.14 2.2 10.32c5.27 26.68 1.81 50.73-13.39 73.49-1.81-7.31-7.68-26.69-18.14-24.16-0.12 1.75-0.22 3.04 0.19 4.76 2.47 10.27-1.96 21.83-5.5 31.73-6.11-9.01-10.31-14.34-17.71-22.26 5.41 37.6-2.35 61.23-30.52 87.75-1.47-36.89 1.8-59.83-21.65-93.14 3.56 26.75 4.31 35.93-5.8 60.66-3.71-17.66-4.93-28.02-12.05-44.91-3.4 15.68-5.29 34.18-21.17 42.15-20.72 10.41-78.11 47-96.89 21.22-18.38-25.23 52.65-49.9 44.05-65.71-23.35-3.26-61.02 55.45-85.37 0.74 3.45-9.28 15.27-27.3 20.27-37.26 12.36-24.65 25.53-49.08 38.71-73.3-5.8-9.03-11.57-25.7-15.56-36.16 0.26 7.32 1.4 15.19 2.29 22.51-8.74-5.65-36.48-25.06-35.14-37.79 0.65-6.06 10.21-18.69 13.55-24.91 14.47-27.04 28.84-55.53 53.56-74.74l-9.54 30.39c4.36-5.18 12.24-15.24 18.01-18.31l1.11 0.81-0.35 2.67c-1.97 10.04-4.08 20.15-5.12 30.32 3.65-7.48 8.07-16.88 12.34-23.88 20.01-29.31 42.11-35.84 73.95-47.32-10.74 13.6-17.98 22.31-25.01 38.35zm55.55 102.8c-1.19 2.97-3.27 8.5-5.12 10.98-5.41 7.24-19.23 12.06-19.84 20.77 1.82 2.27 0.94 1.65 3.47 2.88 23.65 3.56 42.41-3.35 47.55-29.95 0.73-3.76 0.53-13.86-1.71-17.07l-1.03-0.5c-8.7 4.37-14.99 7.64-23.32 12.89z"/>
	<path class="s0" d="m331.99 264.22c2.45-0.23 2.68-0.14 5.16 0.02l0.74 1.42c-1.78 6.91-16.82 21.41-22.46 28.45 1.07 9.38 2.51 18.36-0.41 27.53-7.78 24.46-27.48 32.26-50.99 33.82-8.79 0.59-21.21 0.09-28.46 4.5-13.85 8.44-7.12 22.98-9.32 32.91l-1.18 0.25-2.09-2.66q-7.31-13.19-14.8-26.27c8.22-10.14 16.28-23.81 25-34.5 29.09-35.66 54.79-54.91 98.81-65.47zm-58.27 47.48c-1.19 2.97-3.27 8.5-5.12 10.98-5.41 7.24-19.23 12.06-19.84 20.77 1.82 2.27 0.94 1.65 3.47 2.88 23.64 3.56 42.41-3.35 47.55-29.95 0.73-3.76 0.53-13.86-1.71-17.07l-1.03-0.5c-8.7 4.37-14.99 7.64-23.32 12.89z"/>
	<path class="s2" d="m11.99 212.78c8.63 2.09 16.28 4.66 24.68 7.41l-1.17 5.52c1.9 2.08 2.44 2.5 4.67 4.24-0.77 3.1-0.77 2.46-3.04 5.1-1.82-0.72-3.3-1.11-5.19-1.67l-1.05 0.87c-0.73 14.94 22.64 61.83 29.87 76.84-25.66-17.46-44.2-68.75-48.77-98.31z"/>
	<path class="s1" d="m574.88 45.57c0.59-8.09-8.83-15.89-9.02-20.87l2.48-0.63c25.7 11.97 49.79 16.5 69.32 39.35-20.8-7.57-36.98-12.95-59.14-13.39-2.18-0.05-2.81-2.69-3.64-4.46z"/>
	<path class="s1" d="m511.59 295.98l1.56 0.27c2.6 2.08 1.85 0.8 2.57 3.82-0.79 1.63-47.93 40.17-52.78 43.4-2.97-4.3-4.08-6.94-6.28-11.62 11.49-8.4 42.66-29.5 54.93-35.87z"/>
	<path class="s3" d="m303.04 149.14c-4.57 0.46-19.25 0.54-22.56-2.18l0.28-2.48c6.66-7.49 11.58-16.43 18.26-23.83 2.33-2.59 10.3-8.72 13.08-11.29 0.65-0.6-1.77-2.1 0.15-6.24l2.5 0.11 0.61 2.48c4.44 1.93 25.17 0.94 36.39 5.36 11.4 4.49 25.07 20.42 29.17 21.44l3.06-1.42c-0.74 3.8-0.95 3.71-3.23 6.66 0.41 3.51 1.35 5.88 0.11 8.55-1.94-1.44-1.89-1.32-3.19-3.34-0.13-4.46-5.35-9.5-8.72-12.34-17.87-15.07-35.68-20.35-58.6-17.53-12.18 10.68-16.87 19.65-26.79 31.14l0.4 1.49c5.28 1.82 13.29 2.62 19.08 3.42z"/>
	<path class="s4" d="m146.1 45.91c19.98-17.2 41.23-21.81 67.01-21.98-26.36 8.7-34.85 14.66-50.23 38.2-0.23-2.81-0.1-6.2-0.31-9.34-2.74-2.13-6.5-1.39-10.7-1.45 3.63-1.61 4.52-1.28 6.51-4.01-3.3-2.02-8.14-1.44-12.28-1.42z"/>
	<path class="s5" d="m504.74 15.85c14.03-1.19 32.62 1.29 46.58 3.51 5.47 0.87 11.16 2.91 16.4 3.64l0.62 1.07-2.48 0.63c0.19 4.98 9.61 12.78 9.02 20.87-0.97 3.81-0.74 4.03-3.58 6.92-4.68 1.3-19.36-1.24-26.34-1.27 7.27-1.56 16.4-2.06 23.96-2.69-7.01-24.98-4.86-26.7-31.11-29.1-9.22-0.84-24.84-1.47-33.07-3.58z"/>
	<path class="s6" d="m140.65 645.5c2.68 2.37 0.57 9.13 0.4 13.96-0.8 21.9 3.11 33.41 12.1 52.71l-0.53 0.74-1.76-1.21c-12.97-20.89-23.77-42.48-10.21-66.2z"/>
	<path class="s3" d="m486.7 19.33c3.9-1.11 2.28-0.07 4.89-3.45l2.3 0.14c-0.1 1.65-0.64 2.54 0.65 3.45 14.58 10.26 18.88 19.59 25.85 35.76l-4.04-1.85c-4.65 3.44 3.06 6.63-7.8 5.76 11.3-9.11-14.79-33.91-21.85-39.81z"/>
	<path class="s7" d="m410.03 37.47c3.33-1.93 5.18 0.49 8.82-2.29 3.93-3 6.26-3.98 11.18-4.02l-6.39 3.79c4.14 6.34 19.02 9.97 26.74 22.1l-1.7-0.47c-2.11-0.6-2.8-0.91-4.81-1.92-1.27 2.2-1.08 2.4-1.37 4.97-7.98-11.78-18.72-18.92-32.47-22.16z"/>
	<path class="s8" d="m443.33 266.52l2.31 11.91c-4.55 6-7.74 9.84-12.84 15.39-2.48-3.21-2.41-2.53-6.2-2.59 5.34-6.45 12.03-17.42 16.73-24.71z"/>
	<path class="s9" d="m346.26 311.27c7.85 5.56 22.66 15.5 29.54 21.45-4.25-0.23-5.15-0.62-9.07-2.36l-1.66 0.51c-1.24 2.84-0.9 4.01-0.7 7.07-6.07-9.13-12.26-17.1-18.11-26.67z"/>
	<path class="s1" d="m331.02 541.79c1.33 12.08 1.89 21.12 1.82 33.43-5.36-8.57 0.45-16.74-10.95-18.23 3.31-6.27 4.96-9.42 9.13-15.2z"/>
	<path class="s10" d="m288.42 618.09c-0.27 3.95-1.69 6.56 0.56 9.35 2.12 0.22 3.99 0.36 6.12 0.48q-10.51 6.45-21.2 12.58c3.99-6.25 10.14-16.99 14.52-22.41z"/>
	<path class="s11" d="m426.6 291.23c3.79 0.06 3.72-0.62 6.2 2.59-5.96 6.29-10.66 9.94-18.73 13.4 4.27-6.02 7.75-10.33 12.53-15.99z"/>
	<path class="s12" d="m156.89 241.75c1.04-10.17 3.15-20.28 5.12-30.32l0.66 9.06 1.37 0.48c1.71-1.09 3.36-2.26 5.19-3.1-4.27 7-8.69 16.4-12.34 23.88z"/>
	<path class="s13" d="m161.51 687.69c3.93 2.77 3.18 3.25 6.88 2.98l4.32-2.93c-2.11 6.3-3.51 12.11-5.11 18.54-2.6-6.82-4.12-11.55-6.09-18.59z"/>
	<path class="s0" d="m1046.38 177.47c51.58-0.7 158.4-14.47 135.43 66.96-3.07 21.27-10.55 44.1-13.81 65.1-11.14 71.61-25.32 90.55-102.04 92.03-31.89-0.47-65.11 1.45-96.63-2.09-16.02-1.8-41.03-17.08-40.3-34.94 1.22-29.9 11.63-61.14 16.6-90.71 12.97-78.16 21.08-93.02 100.75-96.35zm-26.93 97.04q-3.71 19.32-7.85 38.56c-3.28 14.26-14.38 37.62 8.68 37.19 11.22-0.2 55.61 2.57 62.04-5.92 8.51-11.24 28.31-104.35 24.34-109.96-5.44-3.93-13.73-5.37-20.27-4.67-18.17 1.96-43.82-4.51-58.42 8.04q-5.3 18.14-8.52 36.76z"/>
	<path class="s14" d="m1019.45 274.51c0.81 3.51 0.57 4.7 0.86 7.9 1.08 12.02 3.57 15.1 1.7 27.36-5.02 4.3-3.81 4.77-10.41 3.3q4.14-19.24 7.85-38.56z"/>
	<path class="s0" d="m692.03 424.45l121.73-0.21c22.22 0.03 47.52-1.6 69.84 1.52 70.59 10.27 38.81 72.31 30.83 118.06-5.42 31.12-9.81 56.21-36.35 75.03-24.17 15.73-67.18 12.16-95.8 12.21l-105.42 0.42q18.61-88.93 39.17-177.42c-7.35-8.45-15.12-16.52-22.44-24.95-2.27-2.63-1.89-2.21-1.56-4.66zm64.47 159.58c16.78-0.08 57.92 1.46 71.77-2.89 4.89-2.78 9.74-7.62 10.37-13.2 1.68-14.81 30.16-93.41 8.55-95.58-16.98-1.7-49.09-1.08-66.11-0.93-2.73 5.1-7 31.18-8.63 38.4-5.47 24.21-9.68 50.19-15.95 74.2z"/>
	<path class="s0" d="m1226.07 179.33q68.45 1.03 136.9 0.42c21.36 71.79 38.29 147.6 59.49 220.13-23.79 0.89-52.64 0.08-76.75 0.06-4-12.53-7.52-31.32-10.2-44.28l-18.21 0.07q-33.42 0.13-66.83-0.21c-6.45 13.79-15.73 30.36-22.93 44.09l-78.36 0.13c6.93-14.63 18.49-34.14 26.55-48.58l44-79.21c11.72-20.88 25.06-43.57 35.29-64.91-6.11-7.23-27.85-23.62-28.95-27.71zm47.13 129.16l17.55-0.25c11.25-0.06 22.73-0.24 33.95-0.16-1.44-6.37-13.59-63.72-16.06-65.31-0.24-0.16-0.53-0.23-0.79-0.34-10.03 17.06-25.05 47.62-34.65 66.06z"/>
	<path class="s0" d="m780.58 180.4c14.82-1.24 40.09-0.51 55.68-0.53l103.21-0.23c-3.8 15.99-8.65 36.04-11.12 51.98l-79.27 0.14c-45.71-0.09-52.7-9.89-61.46 43.55-3.32 20.24-14.07 47.36-12.19 67.72 1.05 11.31 55.36 6.78 63.96 4.57 3.47-7.45 6.07-21.07 7.85-29.46-10.62-0.26-23.75 0.3-34.62 0.38 4.9-17.48 7.52-30.49 10.36-48.39l36.52 0.26q33.96-0.11 67.92 0.37c-9.17 38.33-20.55 90.5-26.94 129.3-51.69-2.17-105.01 1.79-156.79-0.63-28.36-1.33-50.35-20.31-44.98-50.59 6.93-39.02 14.59-79.22 23.6-117.88 7.62-32.14 27.22-44.8 58.27-50.56z"/>
	<path class="s0" d="m939.6 424.54c32.52 0.97 65.41 0.15 98.22 0.95 18 28.89 33.44 59.63 51.03 88.82 4.54 7.55 8.79 15.36 12.69 23.26 4.82-18.97 8.88-39.78 12.91-59.03 3.62-17.26 8.08-36.23 11.01-53.48 21.31-0.33 47.25-0.73 68.57 0.1-2.13 12.61-5.61 25.87-8.38 38.5l-15.28 70.24c-6.63 29.5-14.32 68.93-21.86 97.03l-62.27 0.65c-17.71-32.24-36.5-63.6-54.36-95.7-3.94-7.21-7.68-13.97-11.92-21-1.47 5.06-2.26 8.65-3.29 13.76-6.38 28.81-17.95 74.18-22.48 102.31-20.31 0.09-48.49 1.15-67.97 0.35 6.01-26.57 11.23-53.21 17.08-79.78 7.24-32.91 15.28-65.99 21.13-99.2-6.64-7.51-19.45-20.57-24.83-27.78z"/>
	<path class="s0" d="m1416.75 424.49l10.01 0.03c-8.11 16.74-12.47 29.7-18.54 47.26-23.46-0.52-46.88 0.18-70.33 0.02-14.01-0.09-29.93-1.91-43.7-0.01-3.91 0.54-7.72 1.83-10.65 4.56-4.14 3.85-6.72 12.97-6.21 18.56 1.87 20.44 91.65-2.9 117.93 20.63 7.34 6.56 10.76 15.86 11.23 25.54 0.99 19.89-7.91 57.04-21.93 71.73-7.1 7.44-17.65 13.29-27.74 15.62-19.72 4.55-43.51 2.34-63.77 2.4l-103.3 0.46c-3.26 0.05-5.55 0.54-8.14-1.27 0.53-5.32 12.53-38 15.2-45.53 9.01-0.58 23.16-0.12 32.47-0.1l61.09 0.12c22.96 0.06 45.45 6.91 44.96-25.32-0.19-12.11-23.95-8.7-31.68-9.23-33.06-2.24-94.62 11.64-98.37-37.14-0.71-9.52 2.93-20.7 4.37-29.96 3.19-21.31 11.5-41.48 33.19-49.87 25.7-9.94 59.55-7.99 86.99-8.06q43.45 0.04 86.92-0.44z"/>
	<path class="s0" d="m1654.21 179.49c1.13 0.08 0.33-0.05 2.19 1.08-0.86 3.12-29.26 44.29-34.02 51.58l-65.72-0.03c-3.8 15.69-7.04 34.21-10.41 50.24l-24.59 116.98q-37.59 0.25-75.2-0.28c5.07-26.65 11.32-54.19 17-80.8 5.74-28.61 13.28-58.12 18.43-86.67q-33.83-0.07-67.65 0.28 1.57-9.8 3.31-19.56c-11.26-11.91-25.06-21.37-35.4-32.81 71.28 0.96 142.73 0.06 214.02 0.43 19.27 0.1 38.79 0.12 58.04-0.44z"/>
	<path class="s10" d="m213.16 680.74c7.34-11.89 19.73-31 28.41-41.66-3.83 12.18-14.86 34.81-21.63 46.18-0.13-3.39 0.03-3.78-1.12-7.06-2.66-0.32-2.73 0.55-5.66 2.54z"/>
	<path class="s14" d="m1019.96 514.88c4.24 7.03 7.98 13.79 11.92 21-4.1-1.33-5.29 0.29-9.21-1.9-0.41-3.03-0.4-5.17-2.06-7.71-2.86 0.34-1.47-0.11-3.94 2.37 1.03-5.11 1.82-8.7 3.29-13.76z"/>
</svg>